# xmcd
#
# Track frame offsets:
#	150
#	12662
#	24733
#	35333
#	47216
#	57597
#	71122
#	83651
#	93685
#	108788
#	122322
#	135575
#	148645
#	162128
#	174569
#	186104
#	196860
#	208527
#	221622
#	234195
#	246806
#	259519
#	272317
#
# Disc length: 3981 seconds
#
# Revision: 0
# Processed by: cddbd v1.5.2PL0 Copyright (c) Steve Scherf et al.
# Submitted via: EZCDAudioConverter 2.8.1.1
#
DISCID=3e0f8b17
DTITLE=Howlin Wolf and Muddy Waters - Big Box Of Howlin' Wolf and Muddy Waters CD 
DTITLE=2
DYEAR=1900
DGENRE=Blues
TTITLE0=Howlin Wolf - Spoonfull
TTITLE1=Howlin Wolf - Howlin' Wolf boogie
TTITLE2=Muddy Waters - Mean red spider
TTITLE3=Howlin Wolf - I have a little girl
TTITLE4=Howlin Wolf - I've been abused
TTITLE5=Muddy Waters - Walkin' blues
TTITLE6=Howlin Wolf - Dorothy Mae
TTITLE7=Howlin Wolf - The natchez burning
TTITLE8=Muddy Waters - Still a fool
TTITLE9=Howlin Wolf - Tell me
TTITLE10=Howlin Wolf - I've got a woman
TTITLE11=Muddy Waters - I just want to make love to you
TTITLE12=Howlin Wolf - I love my baby
TTITLE13=Howlin Wolf - Passing by blues
TTITLE14=Muddy Waters - Sugar sweet
TTITLE15=Howlin Wolf - Hold your money
TTITLE16=Howlin Wolf - Saddle my pony
TTITLE17=Muddy Waters - I love the life I live, I live the life...
TTITLE18=Howlin Wolf - Neighbours
TTITLE19=Howlin Wolf - Break of the day
TTITLE20=Muddy Waters - Walkin' thru the park
TTITLE21=Howlin Wolf - My baby told me
TTITLE22=Howlin Wolf - Wolf in the mood (Instrumental)
EXTD=
EXTT0=
EXTT1=
EXTT2=
EXTT3=
EXTT4=
EXTT5=
EXTT6=
EXTT7=
EXTT8=
EXTT9=
EXTT10=
EXTT11=
EXTT12=
EXTT13=
EXTT14=
EXTT15=
EXTT16=
EXTT17=
EXTT18=
EXTT19=
EXTT20=
EXTT21=
EXTT22=
PLAYORDER=
